<?xml version="1.0" encoding="utf-8"?>
<!-- Generator: Adobe Adobe Illustrator 24.2.0, SVG Export Plug-In . SVG Version: 6.00 Build 0)  -->
<svg version="1.1" xmlns="http://www.w3.org/2000/svg" xmlns:xlink="http://www.w3.org/1999/xlink" x="0px" y="0px"
	 viewBox="0 0 1700.79 1700.79" style="enable-background:new 0 0 1700.79 1700.79;" xml:space="preserve">
<style type="text/css">
	.st0{opacity:0.149;}
	.st1{fill:#FFFFFF;}
	.st2{fill:#F2C159;}
	.st3{fill:#99C053;}
	.st4{fill:#99C052;}
	.st5{fill:#5A2F7D;}
	.st6{fill:#F2C159;stroke:#F2C159;stroke-width:0.88;stroke-miterlimit:10;}
	.st7{fill:#F2C159;stroke:#F2C159;stroke-width:0.6199;stroke-miterlimit:10;}
	.st8{fill:#F2C159;stroke:#F2C159;stroke-width:1.2896;stroke-miterlimit:10;}
	.st9{fill:#C8344E;}
	.st10{fill:#C9354F;}
	.st11{fill:#C8344E;stroke:#C9354F;stroke-miterlimit:10;}
	.st12{fill:#FFFFFF;stroke:#FFFFFF;stroke-width:1.2536;stroke-miterlimit:10;}
	.st13{fill:#FFFFFF;stroke:#FFFFFF;stroke-width:0.4786;stroke-miterlimit:10;}
	.st14{fill:#98D0EA;}
	.st15{fill:#98CFEA;}
</style>
<g id="Ebene_2_Kopie">
</g>
<g id="Ebene_8">
</g>
<g id="Ebene_7">
</g>
<g id="Ebene_2">
</g>
<g id="Ebene_5">
</g>
<g id="Ebene_10">
</g>
<g id="Ebene_9">
</g>
<g id="Ebene_14">
</g>
<g id="Ebene_15">
</g>
<g id="Ebene_12">
	<g>
		<path class="st2" d="M587.28,1508.81c69.9-229.19,166.66-545.15,166.66-545.15l793.57-288.31
			c10.15-2.65-160.81,521.54-160.81,521.54l-793.88,323.31c-6.07,2.55-13.06,1.62-18.23-2.44
			c-28.63-22.47-360.93-1015.08-360.93-1015.08l371.99-143.02l25.94,103.12l605.09-231.16c0,0,114.11,318.06,163.22,504.25"/>
		<g>
			<path class="st2" d="M601.57,1512.75c28.85-94.58,57.75-189.14,86.66-283.7c22.39-73.24,44.8-146.47,67.22-219.71
				c4.26-13.92,8.52-27.83,12.78-41.74c-3.45,3.45-6.9,6.9-10.35,10.35c18.37-6.68,36.75-13.35,55.12-20.03
				c46.1-16.75,92.2-33.5,138.3-50.24c60.69-22.05,121.39-44.1,182.08-66.15c62.16-22.58,124.31-45.16,186.47-67.75
				c50.49-18.34,100.98-36.69,151.47-55.03c25.72-9.34,51.44-18.69,77.16-28.03c0.77-0.28,1.66-0.49,2.39-0.87
				c0.15-0.08,0.35-0.09,0.49-0.18c-6.41,3.87-16.11-4.13-17.79-10.11c0.33,1.18-0.57-5.53-0.45-2.87c0.12,2.67-0.31,0.38,0.31-1.88
				c-0.5,1.82-0.69,3.79-1.1,5.65c-3.39,15.37-7.97,30.51-12.36,45.62c-16.12,55.4-33.47,110.44-50.81,165.47
				c-19.39,61.5-39.04,122.92-58.82,184.29c-12.01,37.27-24.06,74.52-36.18,111.75c-0.58,1.79-1.16,3.57-1.75,5.36
				c3.45-3.45,6.9-6.9,10.35-10.35c-8.73,3.56-17.47,7.11-26.2,10.67c-23.33,9.5-46.66,19-69.98,28.5
				c-34.06,13.87-68.11,27.74-102.17,41.61c-40.4,16.45-80.8,32.91-121.2,49.36c-43.04,17.53-86.09,35.06-129.13,52.59
				c-41.22,16.78-82.43,33.57-123.65,50.35c-35.69,14.54-71.39,29.07-107.08,43.61c-25.77,10.5-51.54,20.99-77.32,31.49
				c-12.01,4.89-23.96,9.93-36.03,14.67c-2.58,1.02-3.84,0.91-6.39,0.81c0.96,0.04,1.86,1.5,0.5,0.03c1.35,1.47,2.46,3.71,0.95,1.1
				c-2.63-4.56-5.03-9.17-7.25-13.95c-1.67-3.61-3.28-7.25-4.86-10.91c-0.4-0.94-0.8-1.87-1.21-2.81c-0.21-0.48-0.41-0.97-0.62-1.45
				c-1.25-2.9,1.17,2.8,0.44,1.06c-0.95-2.28-1.91-4.56-2.85-6.85c-4.52-10.97-8.89-22.01-13.19-33.07
				c-11.39-29.31-22.34-58.79-33.16-88.32c-13.65-37.25-27.05-74.59-40.33-111.96c-14.95-42.05-29.74-84.15-44.45-126.29
				c-15.52-44.47-30.95-88.98-46.3-133.52c-15.07-43.72-30.08-87.46-45.04-131.22c-13.88-40.61-27.71-81.23-41.51-121.87
				c-11.67-34.36-23.3-68.73-34.92-103.11c-8.67-25.67-17.33-51.34-25.97-77.02c-4.7-13.98-9.4-27.97-14.09-41.95
				c-0.61-1.81-1.21-3.61-1.82-5.42c-3.45,6.08-6.9,12.16-10.35,18.23c41.83-16.08,83.65-32.16,125.48-48.24
				c66.89-25.72,133.77-51.43,200.66-77.15c15.28-5.88,30.57-11.75,45.85-17.63c-6.08-3.45-12.16-6.9-18.23-10.35
				c8.65,34.37,17.29,68.74,25.94,103.12c1.82,7.23,10.85,13.17,18.23,10.35c20.11-7.68,40.22-15.36,60.32-23.04
				c48.27-18.44,96.54-36.88,144.81-55.32c58.15-22.22,116.31-44.43,174.46-66.65c50.28-19.21,100.56-38.42,150.84-57.63
				c16.6-6.34,33.2-12.68,49.79-19.02c7.85-3,16.23-5.49,23.82-9.1c0.33-0.16,0.69-0.26,1.03-0.39c-6.08-3.45-12.16-6.9-18.23-10.35
				c14.17,39.51,27.94,79.17,41.59,118.87c28.33,82.41,55.91,165.09,81.74,248.31c14.1,45.44,27.74,91.06,39.89,137.07
				c4.87,18.43,33.47,10.61,28.59-7.88c-22.41-84.83-49.25-168.52-76.67-251.85c-23.23-70.62-47.27-140.97-71.93-211.1
				c-4.84-13.78-9.7-27.55-14.63-41.3c-2.5-6.98-10.29-13.39-18.23-10.35c-20.11,7.68-40.22,15.36-60.32,23.04
				c-48.27,18.44-96.54,36.88-144.81,55.32c-58.15,22.22-116.31,44.43-174.46,66.65c-50.28,19.21-100.56,38.42-150.84,57.63
				c-16.6,6.34-33.2,12.68-49.79,19.02c-7.85,3-16.23,5.49-23.82,9.1c-0.33,0.16-0.69,0.26-1.03,0.39
				c6.08,3.45,12.16,6.9,18.23,10.35c-8.65-34.37-17.29-68.74-25.94-103.12c-1.82-7.22-10.85-13.19-18.23-10.35
				c-41.83,16.08-83.65,32.16-125.48,48.24c-66.89,25.72-133.77,51.43-200.66,77.15c-15.28,5.88-30.57,11.75-45.85,17.63
				c-7.16,2.75-13.1,10.03-10.35,18.23c2.28,6.82,4.57,13.64,6.86,20.46c6.32,18.83,12.66,37.66,19,56.49
				c9.57,28.41,19.17,56.82,28.78,85.21c12.03,35.55,24.09,71.09,36.18,106.62c13.7,40.25,27.43,80.5,41.21,120.72
				c14.57,42.52,29.19,85.03,43.88,127.51c14.65,42.35,29.36,84.68,44.17,126.98c13.92,39.75,27.94,79.47,42.1,119.14
				c12.4,34.72,24.9,69.4,37.66,103.98c10.05,27.26,20.22,54.48,30.84,81.52c7.25,18.46,14.53,36.99,22.99,54.93
				c2.02,4.29,4.06,8.71,6.73,12.65c8.1,11.93,23.71,16.58,37.35,11.51c9.95-3.69,19.72-8.03,29.55-12.03
				c23.08-9.4,46.16-18.8,69.23-28.2c32.71-13.32,65.42-26.64,98.13-39.96c38.74-15.78,77.48-31.55,116.22-47.33
				c41.18-16.77,82.35-33.54,123.53-50.31c40.01-16.3,80.03-32.59,120.04-48.89c35.25-14.36,70.5-28.71,105.75-43.07
				c26.89-10.95,53.78-21.9,80.67-32.85c14.93-6.08,29.87-12.16,44.8-18.24c5.23-2.13,11.5-4.03,14.45-9.09
				c2.19-3.75,3.19-8.74,4.51-12.82c7.29-22.39,14.55-44.79,21.79-67.2c11.83-36.59,23.61-73.19,35.34-109.81
				c13.4-41.87,26.74-83.76,39.93-125.7c12.03-38.23,23.97-76.49,35.57-114.85c7.76-25.64,15.65-51.3,22.25-77.27
				c1.6-6.3,3.9-13.47,3.86-20.03c-0.06-11.14-9.95-18.41-20.57-15.14c-11.94,3.68-23.64,8.59-35.37,12.85
				c-24.94,9.06-49.87,18.12-74.81,27.18c-34.32,12.47-68.64,24.94-102.97,37.41c-39.95,14.51-79.9,29.03-119.85,43.54
				c-41.82,15.19-83.64,30.39-125.46,45.58c-39.93,14.51-79.86,29.01-119.79,43.52c-34.28,12.46-68.57,24.91-102.85,37.37
				c-24.88,9.04-49.76,18.08-74.64,27.12c-11.71,4.26-23.49,8.37-35.15,12.77c-3.44,1.3-6.66,2.73-9.01,5.79
				c-2.08,2.7-2.86,5.72-3.83,8.88c-3.11,10.17-6.23,20.33-9.34,30.5c-13.54,44.22-27.07,88.44-40.6,132.67
				c-19.2,62.77-38.39,125.53-57.58,188.3c-19.34,63.28-38.66,126.56-57.97,189.84C567.41,1523.16,596.02,1530.98,601.57,1512.75
				L601.57,1512.75z"/>
		</g>
	</g>
	<g>
		<g>
			<path d="M1203.71,212.39c2.66,15.14,6.78,29.98,9.44,45.12c1.4,7.98,11.17,12.48,18.45,10.48c8.43-2.32,11.88-10.44,10.48-18.45
				c-2.66-15.14-6.78-29.98-9.44-45.12c-1.4-7.98-11.17-12.48-18.45-10.48C1205.76,196.25,1202.3,204.38,1203.71,212.39
				L1203.71,212.39z"/>
		</g>
	</g>
</g>
<g id="Ebene_19">
	<g>
		<g>
			<path d="M527.33,696.23c7.85,0,15.36-6.9,15-15c-0.36-8.13-6.59-15-15-15c-7.85,0-15.36,6.9-15,15
				C512.7,689.36,518.92,696.23,527.33,696.23L527.33,696.23z"/>
		</g>
	</g>
</g>
<g id="Ebene_20">
	<g>
		<path class="st3" d="M476.31,963.66c-52.42-119.85-95.33-257.07-120.5-379.28c305.38-99.73,608.42-206.59,908.8-320.48
			c-5.08,37.76,13.34,119.59,13.34,119.59S463.24,659.92,434.4,706.18c-13.21,21.19,46.04,168.01,49.71,226.08"/>
		<g>
			<path class="st4" d="M489.26,956.08c-40.91-93.68-74.36-193.44-99.94-293.41c-6.98-27.28-13.35-54.71-19.05-82.29
				c-3.49,6.15-6.98,12.3-10.48,18.45c119.28-38.96,238.2-78.99,356.75-120.12c118.55-41.12,236.72-83.33,354.49-126.61
				c65.98-24.25,131.83-48.83,197.56-73.75c-6.33-4.82-12.66-9.64-18.99-14.46c-3.27,25.41,1.27,52.26,5.21,77.34
				c2.43,15.48,5.24,30.95,8.67,46.24c3.49-6.15,6.98-12.3,10.48-18.45c-10.17,3.45-20.33,6.92-30.49,10.4
				c-27.15,9.29-54.29,18.64-81.41,28.02c-38.98,13.49-77.93,27.06-116.84,40.73c-45.9,16.12-91.76,32.36-137.56,48.78
				c-48.02,17.21-95.98,34.6-143.83,52.28c-44.99,16.62-89.89,33.49-134.6,50.86c-37.77,14.68-75.41,29.7-112.65,45.66
				c-24.2,10.37-48.7,20.81-71.58,33.91c-6.69,3.83-13.9,8.05-19.32,13.6c-11.8,12.11-8.27,30.75-5.53,45.73
				c4.88,26.64,13.1,52.71,20.72,78.66c8.3,28.3,16.97,56.58,23.39,85.38c1.28,5.73,2.45,11.49,3.42,17.28
				c0.22,1.32,0.42,2.64,0.63,3.96c0.66,4.16-0.3-2.84,0.09,0.63c0.27,2.45,0.53,4.9,0.7,7.37c0.52,7.81,6.53,15.38,15,15
				c7.68-0.34,15.56-6.62,15-15c-1.74-26.07-9.08-51.82-16.07-76.87c-8.09-29.02-17.09-57.79-25-86.86
				c-3.23-11.86-6.33-23.78-8.63-35.86c-0.46-2.39-0.85-4.8-1.25-7.2c-0.65-3.92,0.33,3.24-0.02-0.05c-0.13-1.25-0.29-2.5-0.39-3.75
				c-0.15-1.82-0.26-3.64-0.26-5.47c0-0.72,0.03-1.43,0.05-2.15c0.06-2.89,0.52-1.4-0.24,0.89c0.22-0.66,0.93-2.65,0.83-3.28
				c0.31,2.01-1.92,4.02-0.71,1.98c0.11-0.19,0.26-0.37,0.38-0.55c-3.58,5.4-1.71,2.13-0.18,0.69c0.44-0.41,0.9-0.79,1.35-1.19
				c2.68-2.41-2.4,1.71-1.19,0.88c1.37-0.94,2.69-1.94,4.08-2.86c18.94-12.51,40.42-21.61,61.09-30.78
				c7.49-3.32,15.02-6.58,22.56-9.8c1.82-0.77,3.64-1.54,5.46-2.32c2.99-1.27-3.48,1.46,0.01,0c1.1-0.46,2.21-0.93,3.31-1.39
				c4.31-1.81,8.63-3.6,12.95-5.39c18.43-7.61,36.93-15.03,55.48-22.34c43.16-17.02,86.54-33.47,130.02-49.66
				c47.3-17.62,94.71-34.92,142.19-52.03c46.32-16.69,92.72-33.2,139.16-49.57c40.62-14.32,81.28-28.53,121.97-42.66
				c30.11-10.45,60.25-20.85,90.4-31.2c14.53-4.98,29.1-9.87,43.61-14.9c0.62-0.22,1.24-0.42,1.87-0.63
				c7.95-2.7,12.35-10.14,10.48-18.45c-3.35-14.9-6.09-29.96-8.48-45.04c-0.48-3.04-0.95-6.09-1.39-9.14
				c-0.24-1.66-0.47-3.33-0.7-4.99c0.53,3.84-0.2-1.64-0.29-2.31c-0.81-6.48-1.5-12.99-2.01-19.5c-0.89-11.48-1.41-23.16,0.06-34.62
				c1.19-9.24-10.61-17.64-18.99-14.46c-117.33,44.48-235.06,87.89-353.18,130.23c-118.12,42.33-236.63,83.59-355.5,123.76
				c-66.59,22.5-133.3,44.66-200.12,66.49c-8.08,2.64-12.19,10.18-10.48,18.45c21.02,101.79,50.81,201.94,87.77,299.06
				c10.73,28.21,22.16,56.15,34.24,83.8c3.24,7.43,14.11,9.13,20.52,5.38C491.54,972.13,492.52,963.54,489.26,956.08L489.26,956.08z
				"/>
		</g>
	</g>
</g>
<g id="Ebene_24">
	<g>
		<g>
			<path class="st5" d="M453.85,623.19c0.15-1.94,0.3-3.88,0.45-5.82c-5.35,11.74-8.23,24.77-8.38,37.84
				c-0.1,8.73,2.57,19.44,10.51,21.34c4.73,1.13,9.74-1.68,12.6-5.88s3.88-9.53,4.13-14.72c0.7-14.67-4.5-29.56-14.01-40.13
				c4.54,19.8,27.66,31.82,44.97,23.39c4.36-2.12,8.4-5.46,10.45-10.1c2.05-4.64,1.71-10.69-1.63-14.36
				c-3.2-3.51-8.2-4.16-12.78-4.35c-13.61-0.58-27.3,1.01-40.47,4.72c11.85-8.7,20.88-21.73,25.23-36.41
				c1.29-4.35,2.11-9.38-0.11-13.27c-2.69-4.72-9.08-5.76-13.78-3.48s-7.95,7.03-10.33,11.94c-6.47,13.3-8.07,29.22-4.41,43.7
				c-1.07-12.09-2.46-25.01-9.79-34.27c-7.33-9.26-22.88-11.87-29.37-1.91c-6.02,9.24-0.08,22.95,9.23,28.2
				c9.31,5.25,20.44,4.47,30.92,3.55c-18.62-0.7-37.37,7.78-49.9,22.57c-4.59,5.42-8.11,14.62-2.91,19.37
				c4.19,3.83,10.61,1.35,15.34-1.68c14.19-9.1,26.21-22.05,34.64-37.31"/>
			<g>
				<path class="st5" d="M457.94,623.19c0.15-1.94,0.3-3.88,0.45-5.82c0.31-3.92-5.99-5.76-7.62-2.07
					c-5.95,13.4-10.02,28.94-8.8,43.73c0.82,9.97,5.75,22.72,17.87,21.75c14.29-1.15,17.9-18.15,17.44-29.73
					c-0.57-14.11-5.97-27.5-15.23-38.13c-2.8-3.21-7.78,0.23-6.84,3.98c5.96,23.67,37.25,39.28,57.34,21.57
					c9.85-8.68,10.43-26.32-3.74-30.89c-7.26-2.34-16-1.62-23.5-1.07c-9.04,0.66-17.97,2.25-26.71,4.65
					c1.05,2.49,2.1,4.99,3.15,7.48c10.56-7.96,18.81-18.27,24.04-30.44c4.13-9.63,8.86-26.26-4.8-30.72
					c-12.77-4.17-21.48,8.27-25.65,18.44c-5.56,13.56-6.39,28.55-3,42.76c1.05,4.39,8.46,3.57,8.04-1.09
					c-1.2-13.33-2.57-29.08-12.68-39.04c-7.78-7.67-21.75-10.83-30.63-3.18c-9.6,8.27-7.3,22.6-0.02,31.54
					c9.75,11.98,26.26,11.54,40.23,10.34c5.18-0.44,5.34-8.05,0-8.18c-14.32-0.34-28.55,3.99-40.22,12.33
					c-9.2,6.57-22.74,18.81-18.59,31.71c4.97,15.44,22.94,4.68,30.72-1.33c11.81-9.11,21.49-20.6,28.79-33.59
					c2.58-4.6-4.48-8.73-7.07-4.13c-5.4,9.6-12.09,18.31-20.19,25.79c-3.05,2.82-25.02,21.21-24.73,8.47
					c0.22-9.77,12.38-18.45,19.84-22.87c9.57-5.67,20.34-8.46,31.45-8.19c0-2.73,0-5.46,0-8.18c-10.13,0.87-22.7,2.27-31.22-4.59
					c-6.34-5.1-11.12-17.46-3.14-23.33c6.98-5.14,17.08-0.14,21.4,6.09c6.05,8.73,6.96,20.09,7.88,30.34
					c2.68-0.36,5.36-0.73,8.04-1.09c-2.45-10.27-2.37-20.92,0.48-31.12c1.89-6.76,7.19-22.4,16.87-20.37
					c9.95,2.09,1.1,19.71-1.55,24.74c-4.48,8.5-10.72,16.04-18.41,21.83c-3.49,2.63-1.66,8.8,3.15,7.48
					c12.25-3.36,24.82-5.01,37.53-4.65c4.99,0.14,11.64,0.32,13.18,6.18c1.55,5.89-2.73,11.21-7.49,14.03
					c-16.21,9.58-36.66-3.07-40.89-19.89c-2.28,1.33-4.56,2.65-6.84,3.98c6.61,7.59,10.85,16.99,12.34,26.95
					c1.13,7.54,1.65,27.13-10.03,26.95c-8.52-0.13-8.72-14.19-8.48-20.07c0.45-11.4,3.12-22.67,7.75-33.1
					c-2.54-0.69-5.08-1.38-7.62-2.07c-0.15,1.94-0.3,3.88-0.45,5.82C449.35,628.44,457.53,628.42,457.94,623.19L457.94,623.19z"/>
			</g>
		</g>
		<ellipse class="st6" cx="454.24" cy="615.74" rx="15.27" ry="17.3"/>
	</g>
	<g>
		<g>
			<path class="st5" d="M749.14,560.17c0.15-1.94,0.3-3.88,0.45-5.82c-5.35,11.74-8.23,24.77-8.38,37.84
				c-0.1,8.73,2.57,19.44,10.51,21.34c4.73,1.13,9.74-1.68,12.6-5.88s3.88-9.53,4.13-14.72c0.7-14.67-4.5-29.56-14.01-40.13
				c4.54,19.8,27.66,31.82,44.97,23.39c4.36-2.12,8.4-5.46,10.45-10.1c2.05-4.64,1.71-10.69-1.63-14.36
				c-3.2-3.51-8.2-4.16-12.78-4.36c-13.61-0.58-27.3,1.01-40.47,4.73c11.85-8.7,20.88-21.73,25.23-36.41
				c1.29-4.35,2.11-9.38-0.11-13.27c-2.69-4.72-9.08-5.76-13.78-3.48c-4.7,2.28-7.95,7.03-10.33,11.94
				c-6.47,13.3-8.07,29.22-4.41,43.7c-1.07-12.09-2.46-25.01-9.79-34.27c-7.33-9.26-22.88-11.87-29.37-1.91
				c-6.02,9.24-0.08,22.95,9.23,28.2c9.31,5.25,20.44,4.47,30.92,3.55c-18.62-0.7-37.37,7.78-49.9,22.57
				c-4.59,5.42-8.11,14.62-2.91,19.37c4.19,3.83,10.61,1.35,15.34-1.68c14.19-9.1,26.21-22.05,34.64-37.31"/>
			<g>
				<path class="st5" d="M753.23,560.17c0.15-1.94,0.3-3.88,0.45-5.82c0.31-3.92-5.99-5.76-7.62-2.07
					c-5.95,13.4-10.02,28.94-8.8,43.73c0.82,9.97,5.75,22.72,17.87,21.75c14.29-1.15,17.9-18.15,17.44-29.73
					c-0.57-14.11-5.97-27.5-15.23-38.13c-2.8-3.21-7.78,0.23-6.84,3.98c5.96,23.67,37.25,39.28,57.34,21.57
					c9.85-8.68,10.43-26.32-3.74-30.89c-7.26-2.34-16-1.62-23.5-1.07c-9.04,0.66-17.97,2.25-26.71,4.65
					c1.05,2.49,2.1,4.99,3.15,7.48c10.56-7.96,18.81-18.27,24.04-30.44c4.13-9.63,8.86-26.26-4.8-30.72
					c-12.77-4.17-21.48,8.27-25.65,18.44c-5.56,13.56-6.39,28.55-3,42.76c1.05,4.39,8.46,3.57,8.04-1.09
					c-1.2-13.33-2.57-29.08-12.68-39.04c-7.78-7.67-21.75-10.83-30.63-3.18c-9.6,8.27-7.3,22.6-0.02,31.54
					c9.75,11.98,26.26,11.54,40.23,10.34c5.18-0.44,5.34-8.05,0-8.18c-14.32-0.34-28.55,3.99-40.22,12.33
					c-9.2,6.57-22.74,18.81-18.59,31.71c4.97,15.44,22.94,4.68,30.72-1.33c11.81-9.11,21.49-20.6,28.79-33.59
					c2.58-4.6-4.48-8.73-7.07-4.13c-5.4,9.6-12.09,18.31-20.19,25.79c-3.05,2.82-25.02,21.21-24.73,8.47
					c0.22-9.77,12.38-18.45,19.84-22.87c9.57-5.67,20.34-8.46,31.45-8.19c0-2.73,0-5.46,0-8.18c-10.13,0.87-22.7,2.27-31.22-4.59
					c-6.34-5.1-11.12-17.46-3.14-23.33c6.98-5.14,17.08-0.14,21.4,6.09c6.05,8.73,6.96,20.09,7.88,30.34
					c2.68-0.36,5.36-0.73,8.04-1.09c-2.45-10.27-2.37-20.92,0.48-31.12c1.89-6.76,7.19-22.4,16.87-20.37
					c9.95,2.09,1.1,19.71-1.55,24.74c-4.48,8.5-10.72,16.04-18.41,21.83c-3.49,2.63-1.66,8.8,3.15,7.48
					c12.25-3.36,24.82-5.01,37.53-4.65c4.99,0.14,11.64,0.32,13.18,6.18c1.55,5.89-2.73,11.21-7.49,14.03
					c-16.21,9.58-36.66-3.07-40.89-19.89c-2.28,1.33-4.56,2.65-6.84,3.98c6.61,7.59,10.85,16.99,12.34,26.95
					c1.13,7.54,1.65,27.13-10.03,26.95c-8.52-0.13-8.72-14.19-8.48-20.07c0.45-11.4,3.12-22.67,7.75-33.1
					c-2.54-0.69-5.08-1.38-7.62-2.07c-0.15,1.94-0.3,3.88-0.45,5.82C744.64,565.43,752.83,565.4,753.23,560.17L753.23,560.17z"/>
			</g>
		</g>
		<ellipse class="st6" cx="749.54" cy="552.72" rx="15.27" ry="17.3"/>
	</g>
	<g>
		<g>
			<path class="st5" d="M899.61,453.57c0.11-1.36,0.22-2.71,0.32-4.07c-3.8,8.2-5.85,17.29-5.96,26.42
				c-0.07,6.1,1.82,13.58,7.47,14.9c3.36,0.79,6.92-1.17,8.95-4.1c2.03-2.93,2.76-6.65,2.93-10.28c0.5-10.24-3.2-20.64-9.96-28.02
				c3.23,13.82,19.66,22.22,31.96,16.33c3.1-1.48,5.97-3.82,7.43-7.05c1.46-3.24,1.22-7.46-1.16-10.03
				c-2.28-2.45-5.83-2.9-9.08-3.04c-9.67-0.41-19.4,0.71-28.77,3.3c8.42-6.08,14.84-15.17,17.93-25.42c0.92-3.04,1.5-6.55-0.08-9.27
				c-1.91-3.3-6.45-4.02-9.8-2.43c-3.34,1.59-5.65,4.91-7.34,8.34c-4.6,9.28-5.74,20.41-3.13,30.51
				c-0.76-8.44-1.75-17.46-6.96-23.93s-16.26-8.29-20.87-1.33c-4.28,6.45-0.06,16.03,6.56,19.69s14.53,3.12,21.98,2.48
				c-13.23-0.49-26.56,5.43-35.46,15.76c-3.26,3.79-5.77,10.21-2.07,13.53c2.98,2.67,7.54,0.95,10.9-1.17
				c10.09-6.36,18.63-15.4,24.62-26.05"/>
			<g>
				<path class="st5" d="M902.49,453.57c0.11-1.36,0.22-2.71,0.32-4.07c0.22-2.77-4.21-4.05-5.37-1.45
					c-4.31,9.66-7.35,20.96-6.14,31.64c0.79,6.96,4.79,15.09,13.04,14.06c9.34-1.16,12.03-11.88,11.91-19.73
					c-0.16-10.27-4.1-19.94-10.84-27.63c-1.96-2.24-5.52,0.15-4.82,2.8c4.42,16.69,27.08,27.8,41.1,14.72
					c6.38-5.95,6.89-17.33-2.19-20.93c-5.14-2.04-11.58-1.46-16.96-1.1c-6.62,0.43-13.15,1.57-19.55,3.28
					c0.74,1.76,1.48,3.51,2.22,5.27c7.85-5.88,13.96-13.49,17.65-22.62c2.83-7.01,4.93-17.99-4.85-20.37
					c-8.74-2.13-14.48,6.31-17.36,13.25c-3.92,9.45-4.44,19.84-2.09,29.74c0.73,3.1,5.96,2.52,5.66-0.77
					c-0.9-9.75-2-21.39-10.02-28.16c-5.7-4.81-15.32-6.47-21.17-0.97c-6.15,5.77-4.7,15.3,0.17,21.37
					c6.97,8.68,18.77,8.4,28.84,7.55c3.65-0.31,3.76-5.7,0-5.77c-10.29-0.19-20.45,2.83-28.86,8.81
					c-6.28,4.47-15.69,12.84-12.99,21.69c3.25,10.63,15.5,4.11,21.15-0.1c8.68-6.46,15.76-14.63,21.16-24
					c1.86-3.22-3.12-6.13-4.98-2.91c-3.58,6.21-7.89,11.89-13.1,16.84c-2.84,2.7-5.9,5.19-9.18,7.34
					c-3.12,2.04-11.29,5.37-9.37-1.94c1.71-6.52,9.27-11.78,14.8-14.81c6.59-3.62,13.86-5.29,21.35-5.15c0-1.92,0-3.84,0-5.77
					c-6.86,0.57-14.95,1.48-21.06-2.42c-4.85-3.1-9.43-11.97-3.87-16.66c4.88-4.12,12.48-0.66,15.71,3.82
					c4.34,6.02,4.98,14.09,5.64,21.23c1.89-0.26,3.77-0.51,5.66-0.77c-1.54-6.5-1.71-13.2-0.18-19.72
					c1.23-5.24,4.25-15.18,10.63-16.16c9.67-1.48,2.61,13.93,0.6,17.6c-3.2,5.81-7.56,10.85-12.87,14.83
					c-2.48,1.85-1.16,6.17,2.22,5.27c7.98-2.12,16.11-3.3,24.37-3.28c3.9,0.01,10.45-0.49,11.73,4.45c1.13,4.38-2.52,8.2-6.09,10.04
					c-11.45,5.89-25.3-2.63-28.39-14.26c-1.61,0.93-3.21,1.87-4.82,2.8c4.46,5.09,7.43,11.22,8.62,17.89
					c0.94,5.31,1.62,20.11-7.06,19.76c-5.96-0.24-6.15-9.93-5.99-14.02c0.31-8,2.26-15.84,5.52-23.14
					c-1.79-0.48-3.58-0.97-5.37-1.45c-0.11,1.36-0.22,2.71-0.32,4.07C896.43,457.27,902.2,457.25,902.49,453.57L902.49,453.57z"/>
			</g>
		</g>
		<ellipse class="st7" cx="899.89" cy="448.36" rx="10.85" ry="12.08"/>
	</g>
	<g>
		<g>
			<path class="st5" d="M455.14,789.11c0.11-1.36,0.22-2.71,0.32-4.07c-3.8,8.2-5.85,17.29-5.96,26.42
				c-0.07,6.1,1.82,13.58,7.47,14.9c3.36,0.79,6.92-1.17,8.95-4.1c2.03-2.93,2.76-6.65,2.93-10.28c0.5-10.24-3.2-20.64-9.96-28.02
				c3.23,13.82,19.66,22.22,31.96,16.33c3.1-1.48,5.97-3.82,7.43-7.05s1.22-7.46-1.16-10.03c-2.28-2.45-5.83-2.9-9.08-3.04
				c-9.67-0.41-19.4,0.71-28.77,3.3c8.42-6.08,14.84-15.17,17.93-25.42c0.92-3.04,1.5-6.55-0.08-9.27c-1.91-3.3-6.45-4.02-9.8-2.43
				c-3.34,1.59-5.65,4.91-7.34,8.34c-4.6,9.28-5.74,20.41-3.13,30.51c-0.76-8.44-1.75-17.46-6.96-23.93
				c-5.21-6.46-16.26-8.29-20.87-1.33c-4.28,6.45-0.06,16.03,6.56,19.69s14.53,3.12,21.98,2.48c-13.23-0.49-26.56,5.43-35.46,15.76
				c-3.26,3.79-5.77,10.21-2.07,13.53c2.98,2.67,7.54,0.95,10.9-1.17c10.09-6.36,18.63-15.4,24.62-26.05"/>
			<g>
				<path class="st5" d="M458.03,789.11c0.11-1.36,0.22-2.71,0.32-4.07c0.22-2.77-4.21-4.05-5.37-1.45
					c-4.31,9.66-7.35,20.96-6.14,31.64c0.79,6.96,4.79,15.09,13.04,14.06c9.34-1.16,12.03-11.88,11.91-19.73
					c-0.16-10.27-4.1-19.94-10.84-27.63c-1.96-2.24-5.52,0.15-4.82,2.8c4.42,16.69,27.08,27.8,41.1,14.72
					c6.38-5.95,6.89-17.33-2.19-20.93c-5.14-2.04-11.58-1.46-16.96-1.1c-6.62,0.43-13.15,1.57-19.55,3.28
					c0.74,1.76,1.48,3.51,2.22,5.27c7.85-5.88,13.96-13.49,17.65-22.62c2.83-7.01,4.93-17.99-4.85-20.37
					c-8.74-2.13-14.48,6.31-17.36,13.25c-3.92,9.45-4.44,19.84-2.09,29.74c0.73,3.1,5.96,2.52,5.66-0.77
					c-0.9-9.75-2-21.39-10.02-28.16c-5.7-4.81-15.32-6.47-21.17-0.97c-6.15,5.77-4.7,15.3,0.17,21.37
					c6.97,8.68,18.77,8.4,28.84,7.55c3.65-0.31,3.76-5.7,0-5.77c-10.29-0.19-20.45,2.83-28.86,8.81
					c-6.28,4.47-15.69,12.84-12.99,21.69c3.25,10.63,15.5,4.11,21.15-0.1c8.68-6.46,15.76-14.63,21.16-24
					c1.86-3.22-3.12-6.13-4.98-2.91c-3.58,6.21-7.89,11.89-13.1,16.84c-2.84,2.7-5.9,5.19-9.18,7.34
					c-3.12,2.04-11.29,5.37-9.37-1.94c1.71-6.52,9.27-11.78,14.8-14.81c6.59-3.62,13.86-5.29,21.35-5.15c0-1.92,0-3.84,0-5.77
					c-6.86,0.57-14.95,1.48-21.06-2.42c-4.85-3.1-9.43-11.97-3.87-16.66c4.88-4.12,12.48-0.66,15.71,3.82
					c4.34,6.02,4.98,14.09,5.64,21.23c1.89-0.26,3.77-0.51,5.66-0.77c-1.54-6.5-1.71-13.2-0.18-19.72
					c1.23-5.24,4.25-15.18,10.63-16.16c9.67-1.48,2.61,13.93,0.6,17.6c-3.2,5.81-7.56,10.85-12.87,14.83
					c-2.48,1.85-1.16,6.17,2.22,5.27c7.98-2.12,16.11-3.3,24.37-3.28c3.9,0.01,10.45-0.49,11.73,4.45c1.13,4.38-2.52,8.2-6.08,10.04
					c-11.45,5.89-25.3-2.63-28.39-14.26c-1.61,0.93-3.21,1.87-4.82,2.8c4.46,5.09,7.43,11.22,8.62,17.89
					c0.94,5.31,1.62,20.11-7.06,19.76c-5.96-0.24-6.15-9.93-5.99-14.02c0.31-8,2.26-15.84,5.52-23.14
					c-1.79-0.48-3.58-0.97-5.37-1.45c-0.11,1.36-0.22,2.71-0.32,4.07C451.97,792.81,457.73,792.79,458.03,789.11L458.03,789.11z"/>
			</g>
		</g>
		<ellipse class="st7" cx="455.42" cy="783.9" rx="10.85" ry="12.08"/>
	</g>
	<g>
		<g>
			<path class="st5" d="M1224.04,369.73c0.11-1.36,0.22-2.71,0.32-4.07c-3.8,8.2-5.85,17.29-5.96,26.42
				c-0.07,6.1,1.82,13.58,7.47,14.9c3.36,0.79,6.92-1.17,8.95-4.1c2.03-2.93,2.76-6.65,2.93-10.28c0.5-10.24-3.2-20.64-9.96-28.02
				c3.23,13.82,19.66,22.22,31.96,16.33c3.1-1.48,5.97-3.82,7.43-7.05c1.46-3.24,1.22-7.46-1.16-10.03
				c-2.28-2.45-5.83-2.9-9.08-3.04c-9.67-0.41-19.4,0.71-28.77,3.3c8.42-6.08,14.84-15.17,17.93-25.42c0.92-3.04,1.5-6.55-0.08-9.27
				c-1.91-3.3-6.45-4.02-9.8-2.43c-3.34,1.59-5.65,4.91-7.34,8.34c-4.6,9.28-5.74,20.41-3.13,30.51
				c-0.76-8.44-1.75-17.46-6.96-23.93c-5.21-6.46-16.26-8.29-20.87-1.33c-4.28,6.45-0.06,16.03,6.56,19.69
				c6.61,3.66,14.53,3.12,21.98,2.48c-13.23-0.49-26.56,5.43-35.46,15.76c-3.26,3.79-5.77,10.21-2.07,13.53
				c2.98,2.67,7.54,0.95,10.9-1.17c10.09-6.36,18.63-15.4,24.62-26.05"/>
			<g>
				<path class="st5" d="M1226.92,369.73c0.11-1.36,0.22-2.71,0.32-4.07c0.22-2.77-4.21-4.05-5.37-1.45
					c-4.31,9.66-7.35,20.96-6.14,31.64c0.79,6.96,4.79,15.09,13.04,14.06c9.34-1.16,12.03-11.88,11.91-19.74
					c-0.16-10.27-4.1-19.94-10.84-27.63c-1.96-2.24-5.52,0.15-4.82,2.8c4.42,16.69,27.08,27.8,41.1,14.72
					c6.38-5.95,6.89-17.33-2.19-20.93c-5.14-2.04-11.58-1.46-16.96-1.1c-6.62,0.43-13.15,1.57-19.55,3.28
					c0.74,1.76,1.48,3.51,2.22,5.27c7.85-5.88,13.96-13.49,17.65-22.62c2.83-7.01,4.93-17.99-4.85-20.37
					c-8.74-2.13-14.48,6.31-17.36,13.25c-3.92,9.45-4.44,19.84-2.09,29.74c0.73,3.1,5.96,2.52,5.66-0.77
					c-0.9-9.75-2-21.39-10.02-28.16c-5.7-4.81-15.32-6.47-21.17-0.97c-6.15,5.77-4.7,15.3,0.17,21.37
					c6.97,8.68,18.77,8.4,28.84,7.55c3.65-0.31,3.76-5.7,0-5.77c-10.29-0.19-20.45,2.83-28.86,8.81
					c-6.28,4.47-15.69,12.84-12.98,21.69c3.25,10.63,15.5,4.11,21.15-0.1c8.68-6.46,15.76-14.63,21.16-24
					c1.86-3.22-3.12-6.13-4.98-2.91c-3.58,6.21-7.89,11.89-13.1,16.84c-2.84,2.7-5.9,5.19-9.18,7.34
					c-3.12,2.04-11.29,5.37-9.37-1.94c1.71-6.52,9.27-11.78,14.8-14.81c6.59-3.62,13.86-5.29,21.35-5.15c0-1.92,0-3.84,0-5.77
					c-6.86,0.57-14.95,1.48-21.06-2.42c-4.85-3.1-9.43-11.97-3.87-16.66c4.88-4.12,12.48-0.66,15.71,3.82
					c4.34,6.02,4.98,14.09,5.64,21.23c1.89-0.26,3.77-0.51,5.66-0.77c-1.54-6.5-1.71-13.2-0.18-19.72
					c1.23-5.24,4.25-15.18,10.63-16.16c9.67-1.48,2.61,13.93,0.6,17.6c-3.2,5.81-7.56,10.85-12.87,14.83
					c-2.48,1.85-1.16,6.17,2.22,5.27c7.98-2.12,16.11-3.3,24.37-3.28c3.9,0.01,10.45-0.49,11.73,4.45c1.13,4.38-2.52,8.2-6.08,10.04
					c-11.45,5.89-25.3-2.63-28.39-14.26c-1.61,0.93-3.21,1.87-4.82,2.8c4.46,5.09,7.43,11.22,8.62,17.89
					c0.94,5.31,1.62,20.11-7.06,19.76c-5.96-0.24-6.15-9.93-5.99-14.02c0.31-8,2.26-15.84,5.52-23.14
					c-1.79-0.48-3.58-0.97-5.37-1.45c-0.11,1.36-0.22,2.71-0.32,4.07C1220.87,373.43,1226.63,373.41,1226.92,369.73L1226.92,369.73z
					"/>
			</g>
		</g>
		<ellipse class="st7" cx="1224.32" cy="364.52" rx="10.85" ry="12.08"/>
	</g>
	<g>
		<g>
			<path class="st5" d="M1069.01,474.13c0.21-3.04,0.42-6.09,0.62-9.13c-7.32,18.43-11.27,38.86-11.47,59.36
				c-0.13,13.7,3.51,30.51,14.39,33.48c6.48,1.77,13.33-2.63,17.24-9.22s5.31-14.95,5.65-23.1c0.96-23.02-6.16-46.37-19.19-62.96
				c6.21,31.06,37.87,49.93,61.56,36.69c5.97-3.33,11.49-8.57,14.31-15.85c2.81-7.28,2.35-16.77-2.24-22.53
				c-4.39-5.51-11.22-6.52-17.49-6.83c-18.63-0.92-37.37,1.59-55.4,7.41c16.22-13.65,28.58-34.1,34.54-57.12
				c1.77-6.83,2.89-14.71-0.15-20.83c-3.68-7.41-12.43-9.04-18.87-5.46c-6.44,3.57-10.88,11.04-14.14,18.73
				c-8.85,20.86-11.05,45.85-6.03,68.56c-1.47-18.97-3.37-39.24-13.4-53.77s-31.32-18.62-40.2-3c-8.24,14.5-0.11,36.01,12.63,44.25
				c12.74,8.23,27.98,7.01,42.33,5.57c-25.49-1.1-51.16,12.21-68.3,35.41c-6.29,8.51-11.11,22.93-3.99,30.39
				c5.73,6.01,14.53,2.13,21-2.63c19.42-14.28,35.88-34.6,47.42-58.54"/>
			<g>
				<path class="st5" d="M1075,474.13c0.21-3.04,0.42-6.09,0.62-9.13c0.49-7.25-9.5-7.44-11.78-1.59
					c-6.45,16.52-10.18,33.96-11.34,51.65c-0.86,13.16-0.82,28.87,7.13,40.14c8.41,11.92,23.71,11.13,32.68,0.17
					c10.18-12.43,10.25-31.5,8.41-46.64c-2.15-17.69-8.38-34.99-19.29-49.18c-4.02-5.22-12.46-2.42-10.96,4.62
					c5.5,25.79,29.53,49.19,57.34,44.81c13.89-2.19,26.84-12.34,30.78-26.07c4.49-15.61-3.18-31.65-19.85-34.21
					c-20.75-3.19-43.54,0.72-63.35,6.98c1.94,3.34,3.89,6.68,5.83,10.02c11.14-9.54,20.14-21.53,26.65-34.64
					c6.37-12.82,13.84-30.07,10.76-44.66c-2.8-13.26-17.16-20.18-29.16-13.53c-12.86,7.13-18.7,24.44-22.07,37.79
					c-4.64,18.42-4.81,37.71-0.86,56.27c1.39,6.53,12.31,5.19,11.78-1.59c-2.06-26.37-6.34-70.54-41.08-72.67
					c-13.31-0.82-24.35,8.83-27.02,21.63c-2.83,13.57,2.18,28.5,11.7,38.42c13.45,14.01,33.94,13.45,51.77,11.68
					c7.56-0.75,7.86-11.74,0-11.99c-15.31-0.5-30.43,3.6-43.66,11.25c-13.09,7.57-26.38,19.21-33.33,32.84
					c-5.69,11.16-8.67,30.63,6.62,35.88c14.55,4.99,30.08-11.12,39.27-20.31c13.34-13.33,24.14-29.08,32.4-46.01
					c3.37-6.91-6.97-13-10.36-6.05c-7.48,15.33-16.96,29.61-28.85,41.88c-5.71,5.89-11.96,11.85-18.94,16.23
					c-2.4,1.5-6.08,3.79-9.06,3.09c-3.19-0.75-3.94-4.38-3.92-7.17c0.08-14.84,15.19-28.6,26.34-36.31
					c12.86-8.9,27.8-13.85,43.49-13.34c0-4,0-8,0-11.99c-14.99,1.48-33.78,3.33-44.59-9.59c-7.33-8.76-12.2-26.14-2.27-34.94
					c9.59-8.5,23.26,0.46,28.6,9.36c8.55,14.23,9.64,31.97,10.9,48.12c3.93-0.53,7.85-1.06,11.78-1.59
					c-3.55-16.71-3.23-34.19,1.07-50.73c1.94-7.46,4.53-14.96,8.57-21.57c2.77-4.53,7.55-10.56,13.62-9
					c13.65,3.51,1.26,31.46-2.12,38.92c-6.22,13.74-15.04,26.03-26.51,35.85c-4.58,3.92,0.29,11.78,5.83,10.02
					c17.89-5.66,37.7-9.09,56.52-7.01c18.81,2.08,14,24.37,2.04,32.42c-10.15,6.83-22.77,5.99-33.12,0.01
					c-11.73-6.78-19.2-18.6-21.99-31.68c-3.65,1.54-7.31,3.08-10.96,4.62c9.96,12.95,16.03,28.58,17.85,44.8
					c0.95,8.41,1.12,17.39-0.76,25.67c-1.35,5.97-4.96,16.08-12.52,16.17c-5.3,0.06-7.97-6.34-9.27-10.56
					c-2.1-6.84-2.38-13.93-2.16-21.03c0.59-18.54,4.44-36.77,11.18-54.04c-3.93-0.53-7.85-1.06-11.78-1.59
					c-0.21,3.04-0.42,6.09-0.62,9.13C1062.49,481.83,1074.48,481.8,1075,474.13L1075,474.13z"/>
			</g>
		</g>
		<ellipse class="st8" cx="1069.55" cy="462.43" rx="20.9" ry="27.15"/>
	</g>
</g>
<g id="Ebene_25">
</g>
<g id="Ebene_23">
</g>
<g id="Ebene_17">
	<g>
		<path class="st9" d="M569.96,1309.12c-27.44-212.73-110.12-396.04-118.73-610.36c286.99-105.39,574.97-208.1,863.88-308.12
			c9.88-3.42,22.8-6.03,29.16,2.28c9.35,12.22,31.51,103.38,24.82,105.76c-255.24,90.57-751.1,251.82-793.59,326.17
			c-11.9,20.82,31.58,330.66-1.65,495.2"/>
		<g>
			<path class="st10" d="M584.96,1309.12c-10.63-81.89-29.51-162.17-49.93-242.09c-19.71-77.15-40.34-154.19-53.94-232.72
				c-7.78-44.93-12.96-89.31-14.86-135.55c-3.67,4.82-7.34,9.64-11.01,14.46c113.68-41.74,227.51-83.07,341.5-123.98
				c113.98-40.9,228.12-81.39,342.4-121.45c56.83-19.92,113.7-39.74,170.6-59.45c5.67-1.97,11.33-4.22,17.21-5.5
				c0.5-0.11,4.84-0.56,1.42-0.33c1.33-0.09,2.63-0.11,3.97-0.12c3.24-0.01,0.07,0.23-0.22-0.06c1.64,0.51,1.59,0.4-0.14-0.33
				c1.43,0.86,1.42,0.75-0.02-0.34c0.3,0.29,0.59,0.58,0.89,0.87c-1.37-1.89-1.74-2.39-1.11-1.49c0.14,0.36,0.46,0.68,0.64,1.02
				c0.36,0.72,0.77,1.42,1.13,2.14c0.39,0.8,2.33,3.85,0.69,1.45c-1.39-2.05-0.32-0.78,0,0.06c0.34,0.91,0.7,1.81,1.04,2.72
				c5.24,14.12,9.1,28.82,12.63,43.44c1.78,7.37,3.43,14.77,4.86,22.22c0.62,3.24,1.21,6.48,1.72,9.74c0.13,0.8,0.23,1.61,0.36,2.41
				c0.49,2.99-0.44-3.88-0.13-0.97c0.14,1.35,0.32,2.7,0.44,4.06c0.16,1.92,0.06,3.84,0.19,5.75c0.19,2.85,1.07-4.53,0.2-1.65
				c-0.43,1.43,1.52-3.4,1.25-2.93c1.23-2.04,2.86-3.66,4.91-4.87c2.81-1.18,3.3-1.43,1.48-0.75c-7.8,2.47-15.48,5.47-23.2,8.19
				c-33.92,11.93-67.9,23.72-101.87,35.51c-77.43,26.88-154.87,53.75-231.99,81.51c-75.13,27.04-150.07,54.74-224,84.95
				c-56.15,22.94-113.14,46.38-165.49,77.28c-15.88,9.37-32.49,19.69-45.15,33.29c-4.75,5.1-9.7,11.03-11.36,17.97
				c-1.68,7.05-1.71,14.69-1.71,21.89c-0.03,24.85,1.88,49.73,3.42,74.52c2.23,35.85,4.55,71.7,6.33,107.58
				c3.99,80.27,6.67,161.49-1.73,241.58c-0.46,4.35-0.95,8.71-1.49,13.05c-0.14,1.11-0.93,7.04-0.37,2.98
				c-0.32,2.28-0.64,4.57-0.97,6.85c-1.19,8.04-2.58,16.05-4.17,24.02c-1.54,7.67,2.19,16.57,10.48,18.45
				c7.46,1.7,16.8-2.25,18.45-10.48c7.52-37.51,10.68-75.88,12.22-114.06c1.66-41.28,1.28-82.64-0.01-123.93
				c-2.19-70.51-7.99-140.8-11.3-211.25c-0.48-10.3-0.92-20.62-0.85-30.94c0.03-3.5,0.1-7.01,0.39-10.51
				c0.06-0.71,0.15-1.43,0.21-2.14c0.2-2.63-0.86,4.61-0.28,2.1c0.22-0.96,0.5-2,0.65-2.97c0.39-2.52-2.6,4.46-0.38,1.21
				c0.39-0.57,0.76-1.16,1.14-1.74c0.95-1.46,2.98-2.64-0.82,0.97c2.29-2.17,4.17-4.86,6.47-7.07c2.75-2.65,5.67-5.09,8.64-7.48
				c3.25-2.62-2.7,1.99,0.01-0.01c0.77-0.56,1.52-1.14,2.29-1.7c1.94-1.42,3.9-2.8,5.88-4.16c19.48-13.34,40.52-24.4,61.63-34.89
				c28.58-14.2,57.79-27.1,87.16-39.57c0.66-0.28,2.64-1.11-0.43,0.18c1.06-0.44,2.11-0.89,3.17-1.33c2.13-0.89,4.26-1.79,6.39-2.67
				c4.33-1.8,8.66-3.6,12.99-5.38c8.53-3.51,17.08-6.98,25.65-10.42c17.9-7.19,35.86-14.23,53.85-21.17
				c38.18-14.72,76.54-28.98,114.98-42.99c78.21-28.5,156.81-55.93,235.44-83.24c35.65-12.38,71.32-24.73,106.95-37.18
				c15.95-5.57,31.9-11.17,47.83-16.81c4.29-1.52,8.75-2.64,12.04-6.01c3.55-3.65,4.63-8.12,5.04-12.98
				c0.47-5.55-0.62-11.36-1.4-16.81c-2.17-15.21-5.69-30.25-9.56-45.1c-3.77-14.49-7.81-29.12-13.94-42.81
				c-3.56-7.96-9.47-14.13-17.94-17.04c-12.26-4.22-25.25-0.03-36.91,4.01c-28.76,9.96-57.52,19.95-86.27,29.97
				c-114.98,40.06-229.82,80.55-344.5,121.47s-229.21,82.26-343.59,124.02c-27.97,10.21-55.94,20.46-83.89,30.72
				c-6.05,2.22-11.3,7.53-11.01,14.46c3.39,82.15,17.82,163.3,36.51,243.22c18.18,77.72,40.01,154.54,57.56,232.41
				c9.99,44.36,18.93,90.6,24.66,134.72c1.01,7.75,6.18,15.4,15,15C577.22,1323.8,586.04,1317.46,584.96,1309.12L584.96,1309.12z"/>
		</g>
	</g>
	<circle class="st12" cx="563.42" cy="779.02" r="55"/>
	<circle class="st12" cx="563.42" cy="779.02" r="55"/>
	<circle class="st12" cx="757.56" cy="626.23" r="55"/>
	<circle class="st12" cx="1248.2" cy="479.79" r="55"/>
	<circle class="st13" cx="1132.88" cy="488.22" r="21"/>
	<circle class="st13" cx="910.78" cy="604.44" r="21"/>
	<circle class="st13" cx="618.42" cy="676.79" r="21"/>
	<circle class="st13" cx="516.42" cy="898.16" r="21"/>
</g>
<g id="Ebene_21">
</g>
<g id="Ebene_21_Kopie">
</g>
<g id="Ebene_16">
	<g>
		<path class="st14" d="M605.07,1379.34c-15.68-217.3-12.08-317.38-21.46-571.6c269.59-94.31,564.94-208.38,826.76-322.51
			c19.66,83.74,8.5,105.22,28.16,188.96c-207.06,90.1-402.81,161.07-609.87,251.18c-21.17,9.21-61.71,23.12-79.11,38.29
			c-25.94,22.62-24.06,71.1-36.97,103c-39.64,97.91-77.82,188.81-110.44,289.28"/>
		<g>
			<path class="st15" d="M620.07,1379.34c-5.21-72.27-9.07-144.61-11.47-217.02c-2.28-68.88-3.55-137.8-5.35-206.7
				c-1.29-49.3-2.82-98.6-4.64-147.89c-3.67,4.82-7.34,9.64-11.01,14.46c108.86-38.09,217.19-77.69,324.99-118.7
				c109.71-41.73,218.87-84.91,327.33-129.78c59.57-24.64,118.93-49.79,178.03-75.55c-7.34-2.99-14.69-5.98-22.03-8.96
				c3.32,14.24,6.24,28.58,8.48,43.03c0.23,1.46,0.45,2.92,0.66,4.38c0.1,0.66,0.61,4.27,0.43,2.97c-0.18-1.32,0.29,2.21,0.37,2.84
				c0.2,1.57,0.39,3.14,0.57,4.71c0.62,5.34,1.16,10.68,1.65,16.03c2.04,22.33,3.56,44.66,6.77,66.87
				c2.34,16.18,5.53,32.21,9.24,48.13c2.3-5.65,4.6-11.29,6.89-16.94c-75.55,32.86-151.8,64.06-228.24,94.79
				c-75.89,30.51-151.96,60.59-227.66,91.57c-38.96,15.94-77.82,32.13-116.53,48.67c-9.75,4.16-19.48,8.35-29.21,12.57
				c-2.44,1.06-4.88,2.12-7.32,3.18c-1.15,0.5-4.41,1.85-1.45,0.64c-3.31,1.36-6.62,2.72-9.94,4.06
				c-15.24,6.14-30.59,12.15-45.31,19.48c-13.61,6.77-26.24,14.84-35.47,27.12c-8.94,11.91-13.8,26.66-17.31,40.97
				c-3.55,14.47-5.78,29.24-9.61,43.64c-4.62,17.36-12.57,33.9-19.32,50.5c-30.16,74.17-60.31,148.39-86.16,224.2
				c-3.33,9.75-6.58,19.53-9.76,29.32c-2.43,7.47,2.83,16.71,10.48,18.45c8.23,1.87,15.85-2.48,18.45-10.48
				c24.72-76,54.05-150.34,84.08-224.37c7.56-18.64,15.16-37.27,22.72-55.92c5.75-14.19,9.8-28.24,12.88-43.24
				c2.92-14.27,5.51-28.77,10.71-42.44c0.31-0.82,0.63-1.65,0.97-2.46c-0.23,0.56-1.21,2.53,0.05-0.01c0.67-1.35,1.29-2.71,2-4.04
				c0.79-1.49,1.63-2.96,2.53-4.39c0.33-0.53,0.67-1.06,1.02-1.58c0.26-0.38,2.76-3.59,0.61-0.97c1.97-2.4,4.12-4.51,6.4-6.6
				c2.47-2.26-1.26,0.72,0.96-0.78c1.52-1.03,3.02-2.1,4.58-3.08c6.27-3.97,12.91-7.35,19.61-10.51c3.39-1.59,6.8-3.13,10.23-4.62
				c0.92-0.4,1.84-0.8,2.77-1.19c0.31-0.13,2.65-1.11,0.57-0.24c1.83-0.76,3.66-1.52,5.5-2.27c15.42-6.31,30.79-12.64,46.09-19.25
				c37.32-16.12,74.81-31.85,112.4-47.33c74.81-30.81,150.03-60.63,225.13-90.74c76.76-30.77,153.38-61.91,229.37-94.52
				c9.45-4.06,18.9-8.14,28.33-12.24c6.16-2.68,8.27-11.02,6.89-16.94c-3.32-14.24-6.24-28.58-8.48-43.03
				c-0.23-1.46-0.45-2.92-0.66-4.38c-0.1-0.66-0.61-4.27-0.43-2.97c0.18,1.32-0.29-2.21-0.37-2.84c-0.2-1.57-0.39-3.14-0.57-4.71
				c-0.62-5.34-1.16-10.68-1.65-16.03c-2.04-22.33-3.56-44.66-6.77-66.87c-2.34-16.18-5.53-32.21-9.24-48.13
				c-2.41-10.35-13.63-12.63-22.04-8.96c-104.58,45.57-209.57,89.04-315.85,131.35C978.48,646.8,869.4,688.47,759.79,728.69
				c-59.89,21.98-119.95,43.51-180.16,64.58c-6.09,2.13-11.27,7.6-11.01,14.46c2.99,81.11,5.04,162.24,6.97,243.38
				c1.58,66.45,3.36,132.9,6.61,199.3c2.11,43,4.78,85.98,7.87,128.92c0.56,7.81,6.5,15.38,15,15
				C612.71,1393.99,620.67,1387.72,620.07,1379.34L620.07,1379.34z"/>
		</g>
	</g>
	<g>
		<g>
			<path class="st15" d="M1433.34,712.79c7.85,0,15.36-6.9,15-15c-0.36-8.13-6.59-15-15-15c-7.85,0-15.36,6.9-15,15
				C1418.7,705.92,1424.93,712.79,1433.34,712.79L1433.34,712.79z"/>
		</g>
	</g>
	<g>
		<g>
			<path class="st15" d="M1179.91,715.05c7.85,0,15.36-6.9,15-15c-0.36-8.13-6.59-15-15-15c-7.85,0-15.36,6.9-15,15
				C1165.28,708.17,1171.5,715.05,1179.91,715.05L1179.91,715.05z"/>
		</g>
	</g>
	<g>
		<g>
			<path class="st15" d="M636.67,1270.78c7.85,0,15.36-6.9,15-15c-0.36-8.13-6.59-15-15-15c-7.85,0-15.36,6.9-15,15
				C622.03,1263.91,628.26,1270.78,636.67,1270.78L636.67,1270.78z"/>
		</g>
	</g>
</g>
<g id="Ebene_18">
	<g>
		<path class="st1" d="M691.59,1129.08c-40.29,5.46-73.42-75.96-52.36-110.93c5.37-8.92,13.15-16.99,23.17-19.82
			c10.02-2.83,22.34,1.06,26.67,10.53c-8.57-23.83-12.54-49.98-6.59-74.59c5.94-24.61,22.95-47.33,46.77-55.92
			c23.82-8.59,53.84-0.2,66.49,21.73c2.64-24.78,27.1-43.9,52.01-44.46c24.91-0.56,48.45,14.83,61.95,35.77
			c7.59,11.78,9.51,12.45,9.73,10.78c0.27-2.06-1.85-3.63-3.82-2.97c-20.57,6.9-135.95,46.49-158.06,73.08
			c-24.3,29.22-44.96,94.69-67.65,146.77"/>
		<g>
			<path class="st1" d="M691.59,1114.08c-1.08,0.13-6.21,1-6.98,0.09c-0.1-0.12,4.06,0.89,1.42,0.15c-0.55-0.16-1.14-0.24-1.69-0.38
				c-1.13-0.29-2.22-0.74-3.34-1.05c-2.56-0.69,1.12,0.49,1.12,0.49c-0.27,0.02-1.3-0.61-1.62-0.79c-1.07-0.6-2.14-1.17-3.18-1.83
				c-1.07-0.67-2.07-1.42-3.1-2.14c2.93,2.07,0.04-0.06-1.08-1.08c-1.88-1.72-3.64-3.55-5.31-5.47c-0.85-0.98-2.94-3.74-0.98-1.07
				c-0.97-1.31-1.92-2.62-2.83-3.97c-3.49-5.2-6.21-10.7-8.9-16.33c1.28,2.68,0.02,0.03-0.47-1.23c-0.56-1.44-1.09-2.9-1.59-4.36
				c-1.06-3.11-1.99-6.25-2.79-9.44c-0.69-2.77-1.28-5.57-1.76-8.39c-0.12-0.74-0.22-1.49-0.35-2.23c-0.38-2.14,0.21,2.81,0.1,0.66
				c-0.08-1.65-0.33-3.3-0.43-4.95c-0.17-2.85-0.2-5.71-0.07-8.56c0.06-1.21,0.17-2.41,0.26-3.62c0.11-1.45,0.95-1.57,0.03-0.53
				c-0.18,1.32-0.17,1.32,0.03,0.01c0.06-0.33,0.12-0.65,0.17-0.98c0.54-2.53,1.17-4.99,1.96-7.45c0.15-0.45,0.39-1.42,0.65-1.75
				c-0.1,0.12-1.69,3.32-0.41,1.06c0.72-1.26,1.34-2.57,2.1-3.81c0.39-0.64,0.79-1.27,1.21-1.89c0.04-0.05,2.78-3.62,1.24-1.78
				c1.44-1.72,2.99-3.35,4.66-4.85c1.88-1.69,5.06-3.31,7.34-3.93c0.51-0.14,3.14-0.36,1.22-0.29c-2.07,0.08,1.97,0.1,1.94,0.1
				c0.99-0.03,2.37,0.69-0.07-0.06c1.03,0.32,2.11,0.54,3.15,0.85c2.17,0.65-2.01-1.03-0.03,0.03c1.16,0.62,2.23,1.54,0.65,0.16
				c0.64,0.55,1.24,1.15,1.8,1.77c-1.69-1.87-0.09,0.18,0.44,1.23c7.57,15,33.12,4.56,27.42-11.56
				c-5.44-15.37-8.85-29.98-8.89-45.62c-0.02-8.27,0.55-14.01,2.48-21.7c0.77-3.08,1.71-6.12,2.81-9.1
				c0.26-0.69,0.52-1.37,0.79-2.06c0.92-2.3-0.84,1.77,0.23-0.47c0.74-1.55,1.47-3.1,2.28-4.62c1.49-2.81,3.15-5.53,4.95-8.16
				c0.37-0.53,3.11-4.1,1.59-2.24c1.08-1.32,2.19-2.61,3.34-3.85c2.14-2.32,4.44-4.44,6.82-6.51c0.3-0.26,2.23-1.72,0.37-0.34
				c0.58-0.43,1.17-0.85,1.77-1.26c1.39-0.96,2.81-1.87,4.26-2.72c1.46-0.85,2.95-1.64,4.47-2.38c0.65-0.32,1.31-0.63,1.97-0.92
				c-0.29,0.13-1.84,0.72-0.21,0.14c3.02-1.07,6.04-1.97,9.19-2.56c0.44-0.08,3.26-0.46,1.37-0.25c-1.75,0.19,0.51-0.02,0.71-0.03
				c1.36-0.08,2.72-0.17,4.08-0.19c1.59-0.02,3.18,0.03,4.77,0.13c0.99,0.07,4.88,0.73,2.1,0.17c3.59,0.71,7.01,1.61,10.48,2.76
				c0.16,0.05,2.24,0.88,0.71,0.24c-1.5-0.62,1.02,0.5,1.28,0.62c1.6,0.79,3.17,1.65,4.69,2.59c0.72,0.44,3.98,2.72,1.87,1.1
				c1.4,1.08,2.72,2.29,3.98,3.53c1.1,1.1,2.15,2.25,3.14,3.45c1.47,1.78-1.17-1.78,0.07,0.18c0.6,0.95,1.22,1.88,1.8,2.85
				c3.41,5.71,10.5,8.66,16.94,6.89c6.89-1.89,10.19-7.82,11.01-14.46c-0.41,3.33,0.33-1.15,0.42-1.52c0.22-0.9,0.47-1.79,0.74-2.67
				c0.1-0.32,1.78-4.46,0.46-1.57c0.38-0.84,0.79-1.66,1.22-2.48c1.08-2.04,2.31-4,3.67-5.86c-1.8,2.47,1-1.09,1.17-1.28
				c0.94-1.04,1.92-2.03,2.94-3c5.9-5.59,12.7-8.62,21.96-10.74c4.3-0.99-1.71,0.07,0.9-0.14c1.17-0.1,2.34-0.18,3.52-0.21
				c2.52-0.06,5.06,0.05,7.57,0.32c-2.6-0.28,0.59,0.12,1.23,0.25c1.23,0.24,2.46,0.51,3.68,0.82c2.91,0.74,5.83,1.65,8.6,2.83
				c-2.03-0.86,0.29,0.18,0.57,0.32c1.35,0.71,2.72,1.36,4.05,2.1c2.22,1.24,4.38,2.59,6.47,4.05c0.84,0.58,1.68,1.17,2.48,1.8
				c-2.08-1.62,1.78,1.58,1.72,1.53c2.12,1.86,4.13,3.83,6.05,5.9c0.87,0.94,1.69,1.92,2.55,2.87c3.23,3.58-0.7-1.07,0.98,1.17
				c1.61,2.14,3.03,4.41,4.51,6.64c2.55,3.85,5.24,7.96,8.51,11.23c10.54,10.53,28.01,3.66,27.6-11.42
				c-0.27-9.99-9.13-17.12-18.72-16.8c-2.99,0.1-5.44,1.02-8.18,1.95c-4.51,1.54-9.02,3.1-13.51,4.68
				c-29.79,10.5-59.37,21.8-88.15,34.83c-13.59,6.15-27.17,12.67-39.76,20.71c-12.13,7.74-21.06,16.57-28.93,28.66
				c-13.09,20.11-22.22,42.83-31.25,64.96c-4.92,12.05-9.65,24.17-14.45,36.27c-4.76,12.02-9.94,24.9-14.42,35.23
				c-3.22,7.42-2.19,16.09,5.38,20.52c6.34,3.71,17.28,2.09,20.52-5.38c12.45-28.68,23.83-59.67,35.55-87.52
				c2.22-5.28,5.6-12.96,8.48-19.1c2.86-6.11,5.85-12.15,9.1-18.07c2.88-5.24,5.94-10.38,9.36-15.28c0.67-0.96,1.4-1.88,2.05-2.85
				c1.18-1.77-1.66,1.92-0.28,0.36c0.36-0.41,0.68-0.86,1.04-1.28c0.93-1.09,1.9-2.12,2.94-3.11c1.18-1.13,2.46-2.14,3.69-3.21
				c1.88-1.63-2.72,1.96-0.61,0.48c0.89-0.62,1.75-1.28,2.64-1.89c3.48-2.42,7.09-4.65,10.75-6.78c8.73-5.07,17.79-9.58,26.93-13.86
				c4.84-2.26,9.72-4.46,14.61-6.59c1.29-0.56,2.58-1.12,3.88-1.68c0.57-0.25,4.34-1.85,2.67-1.14c-1.63,0.69,1.61-0.67,2.12-0.89
				c1.49-0.62,2.99-1.24,4.48-1.85c10.13-4.16,20.33-8.14,30.57-12.01c9.52-3.59,19.08-7.07,28.67-10.45
				c3.54-1.25,7.09-2.49,10.65-3.71c1.41-0.48,2.81-0.96,4.22-1.44c0.51-0.17,1.04-0.32,1.54-0.52c4.09-1.67-1.1,3.04-6.71-1.24
				c-1.79-1.79-3.59-3.59-5.38-5.38c0.19,0.32,0.37,0.64,0.56,0.96c-0.68-2.52-1.37-5.05-2.05-7.57c0.49-3.3,1.88-6.24,4.18-8.82
				c2.21-1.29,4.41-2.57,6.62-3.86c5.33-1.19,9.73-0.11,13.18,3.23c-0.28-0.25-0.54-0.51-0.79-0.78c-2.75-2.47,1.31,2.13-0.52-0.55
				c-2.31-3.39-4.52-6.87-6.93-10.2c-4.99-6.87-10.5-13.22-17.07-18.61c-14.36-11.8-31.26-19.42-49.93-20.68
				c-16.89-1.14-33.81,4.66-47.11,14.93c-14.44,11.15-22.99,26.37-25.22,44.41c9.32-2.52,18.63-5.05,27.95-7.57
				c-17.07-28.57-55.62-39.91-86.15-27.57c-34.09,13.77-53.67,47.09-57.33,82.64c-2.26,21.97,2.07,44.59,9.39,65.27
				c9.14-3.85,18.28-7.71,27.42-11.56c-5.23-10.35-15.96-16.81-27.23-18.32c-12.42-1.67-23.77,2.33-33.47,10.03
				c-14.17,11.24-21.39,27.44-23.24,45.04c-3.18,30.22,9.51,64.59,29.91,86.78c10.88,11.83,26.99,21.25,43.59,19.26
				c7.76-0.93,15.39-6.23,15-15C706.26,1121.76,699.94,1113.08,691.59,1114.08L691.59,1114.08z"/>
		</g>
	</g>
	<g>
		<path class="st1" d="M1094.33,769.63c62.19-24.46,127.89-49.29,190.07-73.75c26.35-10.36,75.53-30.8,70.93-73.43
			c-6.13-56.85-102.76-52.93-102.08,20.82c-14.16-26.91-48.16-41.6-77.46-33.46s-50.86,38.25-49.13,68.6
			c-9.27-43.69-82.6-22.52-93.83,49.19C1027.32,762.84,1028.17,795.72,1094.33,769.63"/>
		<g>
			<path class="st1" d="M1098.32,784.09c47.24-18.57,94.66-36.67,141.98-55c20.18-7.82,40.5-15.37,60.44-23.79
				c15.11-6.38,29.43-13.82,42.25-24.16c12.79-10.32,23.48-24.72,26.43-41.18c2.75-15.37,0.51-32.21-8.47-45.29
				c-15.29-22.29-43.63-30.21-69.28-24.17c-14.07,3.31-27.55,11.39-36.66,22.65c-11.59,14.31-16.79,31.78-16.75,50.11
				c9.32-2.52,18.63-5.05,27.95-7.57c-13.72-25.35-40.88-41.09-69.31-42.98c-29.51-1.96-57.13,14.42-72.64,39.03
				c-8.67,13.76-13.33,30.4-12.59,46.66c9.82-1.33,19.64-2.66,29.46-3.99c-4.36-19.46-20.16-32.23-39.8-33.57
				c-19.35-1.33-38.48,9.09-52.09,22.05c-17.52,16.67-27.83,39.83-31.29,63.52c-2.57,17.56-5.21,38.44,6.37,53.53
				C1041.98,802.95,1075.84,792.86,1098.32,784.09c7.54-2.94,12.78-10.06,10.48-18.45c-1.98-7.2-10.86-13.44-18.45-10.48
				c-6.21,2.42-12.5,4.66-18.94,6.39c-2.62,0.7-5.27,1.33-7.94,1.82c-0.68,0.13-4.81,0.66-0.78,0.21c-1.45,0.16-2.9,0.31-4.36,0.38
				c-1.8,0.09-3.57-0.01-5.36-0.04c-3.08-0.05,0.85,0.28,0.93,0.19c-0.16,0.17-2.14-0.42-2.4-0.49c-0.74-0.18-1.47-0.5-2.21-0.65
				c-2.67-0.57,3.12,1.87,0.93,0.39c-0.52-0.35-1.22-0.77-1.78-1.02c-1.92-0.88,2.63,2.91,0.44,0.31c-0.37-0.43-0.9-1.05-1.34-1.4
				c-1.87-1.48,1.6,3.2,0.79,0.96c-0.19-0.52-0.69-1.24-1-1.7c-1.21-1.8,0.47-1.68,0.39,1.14c0.03-0.95-0.83-2.38-1.08-3.32
				c-0.19-0.7-0.35-1.41-0.49-2.12c-0.1-0.49-0.18-0.98-0.26-1.47c-0.24-1.57-0.16-1,0.23,1.72c0.68-0.63-0.34-8.52-0.3-9.82
				c0.12-3.58,0.48-7.14,0.87-10.69c0.11-0.98,0.31-4.29-0.06,0.3c0.07-0.93,0.26-1.87,0.4-2.79c0.37-2.46,0.78-4.92,1.29-7.35
				c1.17-5.62,2.91-11,4.82-16.4c1.34-3.77-0.93,1.71,0.16-0.45c0.46-0.91,0.84-1.87,1.28-2.78c1.03-2.15,2.15-4.27,3.34-6.34
				c1.15-2,2.38-3.95,3.69-5.85c0.64-0.93,1.31-1.83,1.96-2.74c-2.32,3.25,0.56-0.66,1.08-1.26c2.5-2.93,5.2-5.7,8.09-8.24
				c0.76-0.67,1.54-1.3,2.31-1.95c2.64-2.23-2.78,1.77,0.1-0.06c1.89-1.2,3.67-2.53,5.6-3.66c1.59-0.93,3.23-1.74,4.87-2.58
				c1.4-0.72,2.43-2.1-0.33,0.08c0.56-0.45,1.76-0.68,2.44-0.92c1.33-0.46,2.68-0.88,4.04-1.24c0.8-0.21,1.6-0.4,2.4-0.56
				c0.53-0.11,1.06-0.21,1.59-0.3c1.59-0.25,1.05-0.19-1.63,0.2c0.33,0.36,4.64-0.28,5.35-0.27c0.74,0.01,1.49,0.12,2.22,0.11
				c2.54-0.02-4.14-0.94-0.41-0.04c1.08,0.26,3.72,1.52,4.72,1.33c-1.91,0.35-3.26-1.68-1.37-0.56c0.68,0.41,1.42,0.73,2.1,1.14
				c0.39,0.23,1.28,1.08,1.71,1.13c-2.11-1.68-2.59-2.03-1.42-1.07c0.35,0.3,0.69,0.61,1.02,0.93c0.5,0.48,0.93,1.05,1.44,1.51
				c1.69,1.54-2.05-3.39-0.18-0.2c0.37,0.64,0.78,1.25,1.14,1.9c0.24,0.44,0.47,0.89,0.69,1.34c0.64,1.4,0.45,0.92-0.58-1.45
				c0.54,0.02,1.52,4.98,1.65,5.56c3.67,16.4,30.23,12.96,29.46-3.99c-0.38-8.42-0.19-10.38,2.29-18.39c0.56-1.8,1.18-3.6,1.9-5.34
				c-1.1,2.68,1.22-2.39,1.47-2.86c1.55-2.95,3.34-5.72,5.22-8.47c1.04-1.41,1.12-1.53,0.24-0.36c0.6-0.74,1.21-1.46,1.83-2.18
				c1.25-1.42,2.55-2.8,3.91-4.12c1.02-0.99,2.07-1.95,3.14-2.87c0.72-0.62,1.45-1.22,2.19-1.81c-1.16,0.91-1.03,0.85,0.38-0.19
				c3.01-1.9,5.97-3.75,9.17-5.33c0.96-0.44,0.85-0.41-0.35,0.08c0.88-0.36,1.76-0.7,2.65-1.01c1.77-0.63,3.58-1.18,5.4-1.64
				c1.78-0.45,3.58-0.81,5.39-1.11c-3.21,0.53,0.76-0.04,1.47-0.09c3.68-0.26,7.3-0.09,10.97,0.16c1.79,0.2,1.82,0.2,0.1-0.01
				c0.91,0.14,1.81,0.3,2.71,0.48c1.35,0.27,2.69,0.58,4.03,0.92c1.78,0.46,3.54,0.99,5.28,1.59c0.55,0.19,5.6,2.34,2.82,1.04
				c2.92,1.37,5.76,2.85,8.49,4.57c1.55,0.98,3.08,2.01,4.55,3.11c-2.38-1.78,1.87,1.66,2.27,2.02c2.37,2.16,4.56,4.49,6.61,6.96
				c-1.89-2.29,1.4,2.03,1.7,2.51c1,1.54,1.91,3.14,2.79,4.76c7.17,13.24,27.98,7.01,27.95-7.57c-0.01-3.48,0.17-6.92,0.58-10.38
				c-0.4,3.38,0.04,0.16,0.35-1.34c0.35-1.69,0.77-3.36,1.26-5.02c0.42-1.44,0.94-2.83,1.43-4.25c0.34-1,1.51-3-0.22,0.45
				c0.28-0.57,0.51-1.16,0.81-1.72c1.32-2.46,2.66-4.83,4.22-7.15c2.34-3.49-1.56,1.6,0.66-0.85c0.89-0.98,1.74-1.97,2.67-2.91
				c0.81-0.82,1.66-1.61,2.52-2.38c0.53-0.47,1.13-0.9,1.64-1.39c1.29-1.24-2.82,1.93-0.66,0.53c2.13-1.39,4.21-2.81,6.47-4
				c0.99-0.52,2.01-0.97,3.02-1.47c2.65-1.32-2.8,0.93-0.89,0.39c0.66-0.19,1.3-0.49,1.95-0.72c2.35-0.81,4.75-1.47,7.19-1.97
				c0.98-0.2,2.34-0.17,3.24-0.57c-2.8,1.23-2.93,0.31-1.14,0.19c0.82-0.05,1.63-0.14,2.45-0.18c2.3-0.12,4.6-0.11,6.9,0.05
				c0.53,0.04,1.07,0.11,1.61,0.13c2.39,0.09-1.4-0.18-1.59-0.25c1.28,0.47,2.98,0.49,4.32,0.8c2.2,0.5,4.31,1.2,6.44,1.92
				c3.69,1.25-2.48-1.45,0.38,0.17c1.13,0.64,2.32,1.17,3.44,1.83c1.01,0.59,1.96,1.25,2.94,1.88c2.99,1.94-1.54-1.55,0.04,0.02
				c1.71,1.71,3.42,3.64,5.2,5.26c1.31,1.2-1.73-2.75-0.9-1.16c0.3,0.57,0.78,1.09,1.13,1.63c0.59,0.9,1.14,1.82,1.65,2.76
				c0.34,0.63,2.06,4.45,1.02,1.91c-1.01-2.43,0.61,1.91,0.82,2.59c0.38,1.26,0.7,2.54,0.96,3.84c0.12,0.59,0.19,1.19,0.33,1.78
				c0.61,2.66-0.14-1.21-0.16-1.24c0.71,1.03,0.3,4.59,0.3,5.73c0,1.02-0.04,2.05-0.11,3.07c-0.03,0.48-0.55,3.81-0.13,1.57
				c0.36-1.91-0.69,2.88-0.92,3.7c-0.41,1.47-0.99,2.87-1.44,4.32c1.08-3.52-0.54,1.02-1.1,2.04c-0.9,1.66-1.92,3.21-2.94,4.79
				c-0.46,0.73-2.11,2.81,0,0.15c-0.47,0.59-0.95,1.18-1.44,1.76c-0.98,1.16-2.01,2.29-3.07,3.38c-1.2,1.24-2.45,2.44-3.73,3.59
				c-0.72,0.65-1.44,1.28-2.18,1.91c-0.32,0.27-2.86,2.35-1.2,1.02c1.32-1.06-2.47,1.81-3.18,2.3c-1.28,0.89-2.58,1.76-3.9,2.6
				c-3.1,1.99-6.29,3.83-9.54,5.58c-2.83,1.52-5.7,2.96-8.6,4.33c-1.48,0.7-2.97,1.38-4.47,2.05c-0.91,0.41-6.73,2.88-2.65,1.19
				c-17.9,7.42-36.06,14.24-54.12,21.25c-48.52,18.81-97.15,37.35-145.58,56.39c-7.53,2.96-12.79,10.05-10.48,18.45
				C1081.84,780.8,1090.74,787.08,1098.32,784.09L1098.32,784.09z"/>
		</g>
	</g>
	<g>
		<g>
			<path class="st1" d="M1080.03,719.17c-1.24,0.46-2.52,0.88-3.66,1.55c-2.23,1.31-4.1,3.17-5.4,5.41
				c-3.42,5.85-2.43,13.43,2.36,18.21c0.92,0.92,1.94,1.78,3.09,2.38c0.43,0.23,3.2,1.4,3.65,1.54c0.13,0.04,0.26,0.07,0.4,0.1
				c0.62,0.13,1.33,0.13,1.91,0.38c-1.19-0.5-2.39-1.01-3.58-1.51c0.02,0.01,0.03,0.02,0.04,0.02c-1.01-0.78-2.02-1.56-3.04-2.35
				c0.01,0.01,0.02,0.01,0.02,0.02c-1.29-2.21-2.57-4.41-3.86-6.62c0,0,0,0.01,0,0.01c-0.18-1.33-0.36-2.66-0.54-3.99
				c0,0,0,0.01,0,0.01c0.68-2.52,1.37-5.05,2.05-7.57c0,0-0.01,0.01-0.01,0.01c0.78-1.01,1.56-2.02,2.35-3.04
				c0,0-0.01,0.01-0.01,0.01c1.01-0.78,2.02-1.56,3.04-2.35c-0.01,0.01-0.03,0.02-0.05,0.02c1.19-0.5,2.39-1.01,3.58-1.51
				c-0.01,0-0.02,0.01-0.03,0.01c-1.95,0.46-3.65,1.36-5.1,2.68c-1.63,1.06-2.92,2.46-3.86,4.21c-1.1,1.72-1.69,3.58-1.78,5.58
				c-0.45,1.99-0.36,3.99,0.27,5.98c0.5,1.19,1.01,2.39,1.51,3.58c1.33,2.25,3.13,4.05,5.38,5.38c1.19,0.5,2.39,1.01,3.58,1.51
				c2.66,0.71,5.32,0.71,7.98,0c1.24-0.46,2.52-0.88,3.66-1.55c2.23-1.31,4.1-3.17,5.4-5.41c3.42-5.85,2.43-13.43-2.36-18.21
				c-0.92-0.92-1.94-1.78-3.09-2.38c-0.43-0.23-3.2-1.4-3.65-1.54c-0.13-0.04-0.26-0.07-0.4-0.1c-0.62-0.13-1.33-0.13-1.91-0.38
				c1.19,0.5,2.39,1.01,3.58,1.51c-0.02-0.01-0.03-0.01-0.04-0.02c1.01,0.78,2.02,1.56,3.04,2.35c-0.01-0.01-0.02-0.01-0.02-0.02
				c1.29,2.21,2.57,4.41,3.86,6.62c0,0,0-0.01,0-0.01c0.18,1.33,0.36,2.66,0.54,3.99c0,0,0-0.01,0-0.01
				c-0.68,2.52-1.37,5.05-2.05,7.57c0,0,0.01-0.01,0.01-0.01c-0.78,1.01-1.56,2.02-2.35,3.04c0,0,0.01-0.01,0.01-0.01
				c-1.01,0.78-2.02,1.56-3.04,2.35c0.01-0.01,0.03-0.02,0.05-0.02c-1.19,0.5-2.39,1.01-3.58,1.51c0.01,0,0.02-0.01,0.03-0.01
				c1.95-0.46,3.65-1.36,5.1-2.68c1.63-1.06,2.92-2.46,3.86-4.21c1.1-1.72,1.69-3.58,1.78-5.58c0.45-1.99,0.36-3.99-0.27-5.98
				c-0.5-1.19-1.01-2.39-1.51-3.58c-1.33-2.25-3.13-4.05-5.38-5.38c-1.19-0.5-2.39-1.01-3.58-1.51
				C1085.35,718.45,1082.69,718.45,1080.03,719.17L1080.03,719.17z"/>
		</g>
	</g>
</g>
<g id="Ebene_13">
	<g>
		<g>
			<path d="M1461.91,687.72c-3.77-25.81-7.46-51.62-11.04-77.45c-1.47-10.57-2.91-21.15-4.34-31.73c0.4,2.94,0.08,0.6,0,0.01
				c-0.17-1.3-0.35-2.59-0.52-3.89c-0.28-2.1-0.56-4.2-0.84-6.3c-0.6-4.54-1.2-9.08-1.79-13.62c-2.85-21.87-5.62-43.75-8.1-65.67
				c-0.35-3.09-0.7-6.18-1.01-9.27c-0.9-8.75-9-18.23-18.99-14.46c-7.64,2.88-15.29,5.76-22.93,8.63
				c-20.7,7.79-41.4,15.59-62.1,23.38c-30.72,11.57-61.45,23.13-92.17,34.7c-37.34,14.06-74.69,28.12-112.03,42.18
				c-41.05,15.46-82.11,30.91-123.16,46.37c-41.29,15.54-82.57,31.09-123.86,46.63c-38.5,14.49-77,28.99-115.5,43.48
				c-32.66,12.3-65.32,24.59-97.98,36.89c-23.47,8.84-46.94,17.67-70.4,26.51c-11.06,4.16-22.15,8.26-33.19,12.49
				c-0.47,0.18-0.95,0.36-1.42,0.53c-5.93,2.23-11.43,7.53-11.01,14.46c2.52,41.85,4.87,83.7,7.19,125.56
				c5.55,100.26,10.74,200.54,15.5,300.84c3.23,68.09,6.25,136.18,8.98,204.29c0.31,7.83,6.67,15.37,15,15
				c7.86-0.35,15.34-6.6,15-15c-4.68-116.55-10.18-233.06-16.17-349.55c-4.09-79.51-8.41-159.01-13-238.49
				c-0.82-14.22-1.65-28.43-2.5-42.64c-3.67,4.82-7.34,9.64-11.01,14.46c7.64-2.88,15.29-5.76,22.93-8.63
				c20.7-7.79,41.4-15.59,62.1-23.38c30.72-11.57,61.45-23.13,92.17-34.7c37.34-14.06,74.69-28.12,112.03-42.18
				c41.05-15.46,82.11-30.91,123.16-46.37c41.29-15.54,82.57-31.09,123.86-46.63c38.5-14.5,77-28.99,115.5-43.49
				c32.66-12.3,65.32-24.59,97.98-36.89c23.47-8.84,46.94-17.67,70.4-26.51c11.04-4.16,22.29-7.97,33.19-12.49
				c0.47-0.19,0.95-0.36,1.42-0.53c-6.33-4.82-12.66-9.64-18.99-14.46c4.42,43.22,10.5,86.31,16.41,129.34
				c3.97,28.87,8.09,57.72,12.3,86.56c1.17,8.02,11.33,12.43,18.45,10.48C1460.04,703.8,1463.08,695.76,1461.91,687.72
				L1461.91,687.72z"/>
		</g>
	</g>
	<g>
		<g>
			<path d="M611.89,1457.21c-16.79-78.59-33.64-157.18-50.54-235.75c-14.93-69.39-29.9-138.77-44.91-208.15
				c-12.13-56.09-24.29-112.17-36.48-168.25c-8.25-37.97-16.51-75.93-24.79-113.89c-3.42-15.69-5.92-31.99-10.36-47.43
				c-0.06-0.2-0.09-0.41-0.13-0.61c-3.49,6.15-6.98,12.3-10.48,18.45c12.79-4.61,25.57-9.22,38.36-13.83
				c37.29-13.45,74.58-26.91,111.86-40.38c59.97-21.67,119.93-43.35,179.89-65.05c81.13-29.36,162.26-58.75,243.37-88.16
				c100.7-36.51,201.4-73.06,302.08-109.63c13.71-4.98,27.42-9.96,41.13-14.94c-6.15-3.49-12.3-6.98-18.45-10.48
				c10.79,44.21,20.94,88.33,29.24,133.1c1.48,7.97,11.12,12.49,18.45,10.48c8.37-2.3,11.96-10.46,10.48-18.45
				c-8.3-44.77-18.45-88.88-29.24-133.1c-1.81-7.42-10.98-13.19-18.45-10.48c-103.28,37.53-206.56,75.02-309.86,112.48
				c-83.78,30.38-167.57,60.74-251.37,91.08c-62.52,22.63-125.05,45.25-187.58,67.84c-39.96,14.44-79.92,28.87-119.88,43.29
				c-15.79,5.7-31.69,11.17-47.4,17.09c-0.2,0.07-0.39,0.14-0.59,0.21c-7.94,2.86-12.33,10-10.48,18.45
				c2.8,12.78,5.59,25.56,8.37,38.34c7.74,35.46,15.46,70.92,23.17,106.39c11.76,54.1,23.5,108.21,35.21,162.32
				c14.71,67.94,29.38,135.89,44.01,203.85c16.72,77.67,33.39,155.35,50.01,233.04c2.15,10.04,4.29,20.09,6.44,30.13
				c1.69,7.93,10.97,12.53,18.45,10.48C609.61,1473.41,613.58,1465.16,611.89,1457.21L611.89,1457.21z"/>
		</g>
	</g>
	<g>
		<g>
			<path d="M1301.26,366.31c-7.85-37.74-15.71-75.47-23.55-113.21c-0.24-1.15-0.48-2.3-0.71-3.44
				c-1.56-7.53-11.17-13.08-18.45-10.48c-8.22,2.94-16.43,5.88-24.65,8.82c-22.36,8-44.72,16-67.08,23.99
				c-32.93,11.78-65.85,23.55-98.78,35.33c-40.32,14.42-80.63,28.84-120.95,43.26c-44.16,15.8-88.33,31.59-132.49,47.39
				c-44.41,15.89-88.82,31.77-133.24,47.66c-41.57,14.87-83.14,29.74-124.71,44.61c-35.12,12.56-70.24,25.13-105.37,37.69
				c-25.17,9-50.33,18-75.5,27.01c-11.97,4.28-23.99,8.48-35.93,12.85c-0.51,0.19-1.03,0.37-1.54,0.55
				c-7.47,2.67-12.98,10.21-10.48,18.45c2.01,6.61,4.02,13.22,6.03,19.83c5.51,18.1,11.01,36.2,16.52,54.31
				c8.11,26.66,16.22,53.32,24.33,79.97c9.94,32.68,19.89,65.36,29.83,98.05c10.84,35.63,21.68,71.27,32.52,106.9
				c10.94,35.97,21.89,71.94,32.83,107.91c10.25,33.7,20.51,67.4,30.76,101.11c8.63,28.35,17.25,56.7,25.88,85.05
				c6.23,20.48,12.46,40.97,18.7,61.45c2.94,9.65,5.71,19.37,8.81,28.97c0.13,0.42,0.25,0.84,0.38,1.26
				c2.36,7.75,10.49,12.66,18.45,10.48c7.67-2.11,12.84-10.67,10.48-18.45c-2.01-6.61-4.02-13.22-6.03-19.83
				c-5.51-18.1-11.01-36.2-16.52-54.31c-8.11-26.66-16.22-53.32-24.33-79.97c-9.94-32.68-19.89-65.36-29.83-98.05
				c-10.84-35.63-21.68-71.27-32.52-106.9c-10.94-35.97-21.89-71.94-32.83-107.91c-10.25-33.7-20.51-67.4-30.76-101.11
				c-8.63-28.35-17.25-56.7-25.88-85.05c-6.23-20.48-12.46-40.97-18.7-61.45c-2.93-9.62-5.47-19.48-8.81-28.97
				c-0.14-0.41-0.26-0.84-0.38-1.26c-3.49,6.15-6.98,12.3-10.48,18.45c8.22-2.94,16.43-5.88,24.65-8.82
				c22.36-8,44.72-16,67.08-23.99c32.93-11.78,65.85-23.55,98.78-35.33c40.32-14.42,80.63-28.84,120.95-43.26
				c44.16-15.8,88.33-31.59,132.49-47.39c44.41-15.89,88.82-31.77,133.24-47.66c41.57-14.87,83.14-29.74,124.71-44.61
				c35.12-12.56,70.24-25.13,105.37-37.69c25.17-9,50.33-18,75.5-27.01c11.95-4.27,24.14-8.15,35.93-12.85
				c0.5-0.2,1.03-0.37,1.54-0.55c-6.15-3.49-12.3-6.98-18.45-10.48c4.33,20.91,8.69,41.81,13.04,62.71
				c3.74,17.98,7.48,35.96,11.22,53.94c1.65,7.93,11,12.53,18.45,10.48C1299.02,382.5,1302.92,374.27,1301.26,366.31L1301.26,366.31
				z"/>
		</g>
	</g>
</g>
<g id="Ebene_6">
	<g id="Ebene_12_Kopie">
		<g>
			<g>
				<path d="M594.44,1512.59c26.37-87.13,55.37-173.47,85.38-259.41c24.02-68.8,48.78-137.35,74.16-205.66
					c6.49-17.47,13.02-34.92,19.62-52.35c0.2-0.52,0.39-1.04,0.59-1.56c0.7-1.81,0.62-0.2-0.06,0.22c-0.72,0.44-2.83,1.78-3.03,1.79
					c0.35-0.02,0.87-0.35,1.18-0.49c1.94-0.88,3.95-1.63,5.93-2.44c21.6-8.9,43.21-17.8,64.81-26.7
					c38.54-15.87,77.07-31.75,115.61-47.62c48.4-19.94,96.79-39.87,145.19-59.81c51.03-21.02,102.05-42.04,153.08-63.06
					c46.9-19.32,93.79-38.63,140.69-57.95c35.93-14.8,71.87-29.6,107.8-44.41c17.71-7.29,35.78-14.04,53.23-21.93
					c0.76-0.34,1.54-0.64,2.31-0.95c-6.15-6.15-12.3-12.3-18.45-18.45c-13.08,47.88-27.64,95.37-41.9,142.91
					c-20.42,68.08-41.06,136.1-61.77,204.09c-16.47,54.09-33,108.16-49.56,162.22c-2.25,7.35-4.51,14.7-6.76,22.05
					c-1.11,3.62-2.84,7.48-3.45,11.23c-0.48,2.98,0.48-2.07,3.11-1.94c-0.25-0.01-0.71,0.28-0.93,0.37
					c-2.23,0.9-4.47,1.75-6.71,2.63c-27.74,10.86-55.49,21.72-83.23,32.57c-49.08,19.21-98.16,38.42-147.24,57.63
					c-59.29,23.21-118.58,46.41-177.88,69.62c-58.33,22.83-116.66,45.66-174.99,68.49c-46.19,18.08-92.38,36.16-138.57,54.24
					c-22.88,8.96-45.74,17.98-68.64,26.87c-0.67,0.26-1.34,0.55-2.02,0.79c-2.94,1.02-2.87,0.96-5.57,0.32
					c1.44,0.34,1.32,1.8,0.71,0.51c-1.07-2.26,2.53,4.04,1.32,1.71c-0.61-1.18-1.47-2.29-2.13-3.46c-2.06-3.63-3.84-7.42-5.58-11.2
					c-1.2-2.61-2.37-5.24-3.52-7.88c-0.59-1.36-1.18-2.72-1.76-4.08c-0.32-0.76-0.64-1.52-0.97-2.28c0.69,1.58,1.29,3.08,0.18,0.43
					c-15.56-37.47-29.6-75.58-43.54-113.68c-20.45-55.89-40.29-112-59.96-168.16c-22.71-64.87-45.14-129.84-67.42-194.87
					c-22.31-65.13-44.47-130.3-66.53-195.52c-19.11-56.51-38.15-113.06-57.11-169.62c-13.09-39.05-26.15-78.1-39.17-117.17
					c-1.99-5.96-3.97-11.92-5.96-17.88c-0.78-2.33-1.55-4.66-2.32-6.99c-0.11-0.34-0.74-2.94-0.99-2.98
					c1.22,0.22-2.77,3.46-3.29,3.45c2.62,0.06,6.77-2.5,9.18-3.39c7.22-2.66,14.43-5.33,21.65-7.99
					c52.93-19.53,105.86-39.07,158.79-58.6c51.45-18.99,102.9-37.98,154.36-56.96c8.43-3.11,16.86-6.22,25.29-9.33
					c-6.15-3.49-12.3-6.98-18.45-10.48c10.45,29.16,21,58.29,31.81,87.33c2.63,7.08,10.32,13.5,18.45,10.48
					c19.95-7.41,39.9-14.82,59.85-22.23c47.47-17.63,94.94-35.27,142.41-52.9c57.82-21.48,115.64-42.96,173.46-64.44
					c49.65-18.44,99.29-36.88,148.94-55.33c24.32-9.04,48.77-17.8,72.99-27.11c0.34-0.13,0.68-0.25,1.01-0.38
					c7.59-2.82,12.76-10.15,10.48-18.45c-2.01-7.3-10.82-13.31-18.45-10.48c-19.95,7.41-39.9,14.82-59.85,22.23
					c-47.47,17.63-94.94,35.27-142.41,52.9c-57.82,21.48-115.64,42.96-173.46,64.44c-49.65,18.44-99.29,36.88-148.94,55.33
					c-16.5,6.13-33.01,12.26-49.51,18.39c-7.73,2.87-15.99,5.23-23.48,8.72c-0.32,0.15-0.68,0.25-1.01,0.38
					c6.15,3.49,12.3,6.98,18.45,10.48c-10.8-29.04-21.36-58.16-31.81-87.33c-2.55-7.13-10.38-13.46-18.45-10.48
					c-32.3,11.92-64.6,23.84-96.9,35.76c-59.47,21.95-118.95,43.9-178.42,65.85c-22.71,8.38-45.41,16.76-68.12,25.14
					c-10.03,3.7-21.92,6.47-31.26,11.91c-11.33,6.61-15.57,20.17-11.81,32.35c0.73,2.35,1.56,4.68,2.34,7.02
					c1.92,5.77,3.84,11.54,5.77,17.32c5.57,16.73,11.15,33.45,16.74,50.17c16.42,49.15,32.9,98.27,49.43,147.39
					c21.14,62.81,42.37,125.59,63.71,188.33c22.76,66.9,45.64,133.75,68.74,200.53c21.47,62.07,43.11,124.08,65.18,185.94
					c17.17,48.14,34.5,96.25,52.82,143.97c6.55,17.06,13.25,34.06,20.37,50.88c3.86,9.13,7.62,18.55,12.68,27.1
					c8.26,13.98,24.98,19.22,40.34,13.3c7.45-2.87,14.87-5.82,22.3-8.73c35.76-14,71.53-28,107.29-41.99
					c54.05-21.16,108.11-42.31,162.16-63.47c60.82-23.8,121.64-47.61,182.45-71.41c56.06-21.94,112.12-43.88,168.18-65.82
					c39.87-15.6,79.74-31.21,119.61-46.82c10.11-3.96,20.21-7.91,30.32-11.87c10.83-4.24,20.08-8.82,24.31-21.2
					c11.41-33.39,20.74-67.65,31.05-101.38c20.14-65.89,40.23-131.81,60.2-197.75c18.95-62.58,37.87-125.16,56.29-187.9
					c5.45-18.58,10.91-37.17,16.02-55.85c2.73-9.99-7.46-22.98-18.45-18.45c-12.38,5.1-24.76,10.2-37.15,15.3
					c-32.4,13.35-64.81,26.7-97.21,40.04c-45.51,18.75-91.03,37.5-136.54,56.24c-51.12,21.06-102.25,42.12-153.37,63.18
					c-49.78,20.51-99.56,41.01-149.34,61.52c-41.33,17.02-82.65,34.05-123.98,51.07c-25.76,10.61-51.52,21.22-77.28,31.83
					c-4.81,1.98-9.63,3.95-14.44,5.95c-9.83,4.08-15.11,10.47-18.82,20.27c-2.56,6.74-5.1,13.49-7.63,20.24
					c-22.18,59.07-43.83,118.34-65,177.78c-30.3,85.06-59.66,170.48-87.03,256.53c-6.7,21.06-13.26,42.17-19.66,63.32
					C559.91,1523.13,588.85,1531.05,594.44,1512.59L594.44,1512.59z"/>
			</g>
		</g>
	</g>
</g>
</svg>
